<svg width="26" height="26" viewBox="0 0 26 26" fill="none" xmlns="http://www.w3.org/2000/svg">
<g filter="url(#filter0_d_2_592)">
<g clip-path="url(#clip0_2_592)">
<path d="M21.5 4.28699V4.5H16V0H16.2603C16.5338 0 16.7962 0.0889101 16.9896 0.247113L21.198 3.69035C21.3913 3.8486 21.5 4.06321 21.5 4.28699ZM15.6562 5.625C15.0891 5.625 14.625 5.24531 14.625 4.78125V0H6.03125C5.4617 0 5 0.377754 5 0.84375V17.1562C5 17.6222 5.4617 18 6.03125 18H20.4688C21.0383 18 21.5 17.6222 21.5 17.1562V5.625H15.6562ZM10.294 14.0803C10.2732 14.0984 10.2482 14.1131 10.2204 14.1234C10.1926 14.1337 10.1627 14.1394 10.1322 14.1402C10.1018 14.141 10.0714 14.1368 10.0429 14.1281C10.0144 14.1193 9.98826 14.106 9.96603 14.0889L7.17882 11.951C7.15567 11.9332 7.13722 11.9118 7.1246 11.888C7.11199 11.8641 7.10548 11.8384 7.10548 11.8125C7.10548 11.7865 7.11199 11.7608 7.1246 11.737C7.13722 11.7132 7.15567 11.6917 7.17882 11.674L9.96603 9.53606C9.98826 9.51901 10.0144 9.50571 10.0429 9.49691C10.0714 9.48812 10.1018 9.48401 10.1322 9.48481C10.1627 9.48561 10.1926 9.49131 10.2204 9.50159C10.2482 9.51187 10.2732 9.52652 10.294 9.54471L11.1353 10.2789C11.1566 10.2975 11.173 10.3194 11.1838 10.3432C11.1945 10.3671 11.1993 10.3925 11.1978 10.4179C11.1963 10.4433 11.1886 10.4682 11.1751 10.4911C11.1616 10.514 11.1426 10.5345 11.1193 10.5513L9.36777 11.8125L11.1193 13.0737C11.1426 13.0905 11.1616 13.111 11.1751 13.1339C11.1886 13.1568 11.1963 13.1817 11.1978 13.2071C11.1993 13.2325 11.1945 13.2579 11.1838 13.2818C11.173 13.3056 11.1566 13.3275 11.1353 13.3461L10.294 14.0803V14.0803ZM12.4981 15.8549L11.3185 15.5747C11.2594 15.5607 11.2095 15.528 11.1799 15.4839C11.1502 15.4398 11.1432 15.3878 11.1603 15.3394L13.8003 7.89947C13.8175 7.85112 13.8574 7.81032 13.9113 7.78606C13.9652 7.76179 14.0287 7.75604 14.0878 7.77006L15.2674 8.05025C15.2967 8.05721 15.324 8.06881 15.3478 8.08439C15.3716 8.09998 15.3914 8.11924 15.406 8.14109C15.4207 8.16294 15.43 8.18694 15.4334 8.21172C15.4367 8.2365 15.4341 8.26158 15.4256 8.28552L12.7856 15.7255C12.7771 15.7494 12.7629 15.7718 12.7439 15.7913C12.7248 15.8107 12.7013 15.8269 12.6746 15.8389C12.6479 15.851 12.6186 15.8586 12.5883 15.8613C12.558 15.864 12.5274 15.8619 12.4981 15.8549V15.8549ZM19.4071 11.951L16.6199 14.0889C16.5977 14.106 16.5716 14.1193 16.5431 14.1281C16.5145 14.1368 16.4842 14.141 16.4537 14.1402C16.4233 14.1394 16.3933 14.1337 16.3655 14.1234C16.3378 14.1131 16.3128 14.0984 16.2919 14.0803L15.4506 13.346C15.4293 13.3275 15.4129 13.3056 15.4021 13.2817C15.3914 13.2579 15.3866 13.2325 15.3881 13.2071C15.3896 13.1817 15.3973 13.1568 15.4108 13.1338C15.4243 13.1109 15.4433 13.0905 15.4666 13.0737L17.2182 11.8125L15.4666 10.5513C15.4433 10.5345 15.4243 10.514 15.4108 10.4911C15.3974 10.4682 15.3896 10.4433 15.3882 10.4179C15.3867 10.3925 15.3914 10.3671 15.4022 10.3432C15.4129 10.3194 15.4294 10.2975 15.4506 10.2789L16.292 9.54471C16.3128 9.52652 16.3378 9.51187 16.3656 9.50159C16.3934 9.49131 16.4233 9.48561 16.4538 9.48481C16.4842 9.48401 16.5146 9.48812 16.5431 9.49691C16.5716 9.50571 16.5977 9.51901 16.62 9.53606L19.4072 11.674C19.4303 11.6917 19.4488 11.7132 19.4614 11.737C19.474 11.7608 19.4805 11.7865 19.4805 11.8125C19.4805 11.8385 19.474 11.8641 19.4613 11.888C19.4487 11.9118 19.4303 11.9332 19.4071 11.951V11.951Z" fill="#767676"/>
</g>
</g>
<defs>
<filter id="filter0_d_2_592" x="0" y="0" width="26" height="26" filterUnits="userSpaceOnUse" color-interpolation-filters="sRGB">
<feFlood flood-opacity="0" result="BackgroundImageFix"/>
<feColorMatrix in="SourceAlpha" type="matrix" values="0 0 0 0 0 0 0 0 0 0 0 0 0 0 0 0 0 0 127 0" result="hardAlpha"/>
<feOffset dy="4"/>
<feGaussianBlur stdDeviation="2"/>
<feComposite in2="hardAlpha" operator="out"/>
<feColorMatrix type="matrix" values="0 0 0 0 0 0 0 0 0 0 0 0 0 0 0 0 0 0 0.25 0"/>
<feBlend mode="normal" in2="BackgroundImageFix" result="effect1_dropShadow_2_592"/>
<feBlend mode="normal" in="SourceGraphic" in2="effect1_dropShadow_2_592" result="shape"/>
</filter>
<clipPath id="clip0_2_592">
<rect width="16.5" height="18" fill="white" transform="translate(5)"/>
</clipPath>
</defs>
</svg>
